<mxfile host="app.diagrams.net" modified="2023-05-30T13:23:29.338Z" agent="Mozilla/5.0 (Windows NT 10.0; Win64; x64) AppleWebKit/537.36 (KHTML, like Gecko) Chrome/113.0.0.0 Safari/537.36" etag="jiGCnkcNLXLD1vm5ecmw" version="21.3.5" type="github">
  <diagram id="6IpWRTOvNhz4fQDFHxwE" name="Page-1">
    <mxGraphModel dx="1965" dy="1130" grid="1" gridSize="10" guides="0" tooltips="1" connect="1" arrows="1" fold="1" page="1" pageScale="1" pageWidth="850" pageHeight="1100" math="0" shadow="0">
      <root>
        <mxCell id="0" />
        <mxCell id="1" parent="0" />
        <mxCell id="fXu-zx2hqorw0dzWZYp2-54" value="" style="endArrow=classic;html=1;rounded=0;entryX=0;entryY=0.5;entryDx=0;entryDy=0;exitX=1;exitY=0.5;exitDx=0;exitDy=0;startArrow=none;" parent="1" source="fXu-zx2hqorw0dzWZYp2-78" target="fXu-zx2hqorw0dzWZYp2-77" edge="1">
          <mxGeometry width="50" height="50" relative="1" as="geometry">
            <mxPoint x="630" y="570" as="sourcePoint" />
            <mxPoint x="690" y="570" as="targetPoint" />
          </mxGeometry>
        </mxCell>
        <mxCell id="fXu-zx2hqorw0dzWZYp2-77" value="Developers (GitLab-Asana-Slack)" style="rounded=1;whiteSpace=wrap;html=1;fillColor=#f8cecc;strokeColor=#b85450;gradientColor=#ea6b66;shadow=1;" parent="1" vertex="1">
          <mxGeometry x="770" y="560" width="130" height="60" as="geometry" />
        </mxCell>
        <mxCell id="fXu-zx2hqorw0dzWZYp2-78" value="&lt;b&gt;PM assigned tasks to Development (ASANA) according to current Milestone&lt;/b&gt;" style="ellipse;whiteSpace=wrap;html=1;fillColor=#dae8fc;strokeColor=#6c8ebf;gradientColor=#7ea6e0;shadow=1;" parent="1" vertex="1">
          <mxGeometry x="440" y="520" width="150" height="140" as="geometry" />
        </mxCell>
        <mxCell id="fXu-zx2hqorw0dzWZYp2-82" value="Notification in Slack" style="rounded=0;whiteSpace=wrap;html=1;fillColor=#cdeb8b;strokeColor=#36393d;shadow=1;" parent="1" vertex="1">
          <mxGeometry x="1010" y="452" width="120" height="60" as="geometry" />
        </mxCell>
        <mxCell id="fXu-zx2hqorw0dzWZYp2-85" value="Create &lt;b&gt;Task&lt;/b&gt;/&lt;b&gt;Bug &lt;/b&gt;in Asana (&lt;b&gt;Open&lt;/b&gt;)" style="rounded=0;whiteSpace=wrap;html=1;fillColor=#eeeeee;strokeColor=#36393d;shadow=1;" parent="1" vertex="1">
          <mxGeometry x="1010" y="561" width="120" height="60" as="geometry" />
        </mxCell>
        <mxCell id="fXu-zx2hqorw0dzWZYp2-86" value="" style="endArrow=classic;html=1;rounded=0;exitX=1;exitY=0.5;exitDx=0;exitDy=0;" parent="1" source="fXu-zx2hqorw0dzWZYp2-85" edge="1">
          <mxGeometry width="50" height="50" relative="1" as="geometry">
            <mxPoint x="1240" y="641" as="sourcePoint" />
            <mxPoint x="1240" y="591" as="targetPoint" />
          </mxGeometry>
        </mxCell>
        <mxCell id="fXu-zx2hqorw0dzWZYp2-87" value="New Issue in Gitab" style="rounded=0;whiteSpace=wrap;html=1;fillColor=#eeeeee;strokeColor=#36393d;shadow=1;" parent="1" vertex="1">
          <mxGeometry x="1240" y="561" width="120" height="60" as="geometry" />
        </mxCell>
        <mxCell id="fXu-zx2hqorw0dzWZYp2-88" value="&lt;i&gt;Pipedream Sync&lt;/i&gt;" style="text;html=1;align=center;verticalAlign=middle;resizable=0;points=[];autosize=1;strokeColor=none;fillColor=none;" parent="1" vertex="1">
          <mxGeometry x="1125" y="566" width="110" height="30" as="geometry" />
        </mxCell>
        <mxCell id="fXu-zx2hqorw0dzWZYp2-91" value="Group merge Request in Gitlab" style="rounded=0;whiteSpace=wrap;html=1;fillColor=#eeeeee;strokeColor=#36393d;shadow=1;" parent="1" vertex="1">
          <mxGeometry x="1470" y="561" width="120" height="60" as="geometry" />
        </mxCell>
        <mxCell id="fXu-zx2hqorw0dzWZYp2-92" value="" style="endArrow=classic;html=1;rounded=0;" parent="1" edge="1">
          <mxGeometry width="50" height="50" relative="1" as="geometry">
            <mxPoint x="1510" y="720" as="sourcePoint" />
            <mxPoint x="1540" y="620" as="targetPoint" />
            <Array as="points">
              <mxPoint x="1540" y="720" />
            </Array>
          </mxGeometry>
        </mxCell>
        <mxCell id="fXu-zx2hqorw0dzWZYp2-95" value="&lt;b&gt;TeamLead &lt;/b&gt;prepare new issue in Gitlab for Release with release notes details" style="rounded=0;whiteSpace=wrap;html=1;fillColor=#dae8fc;strokeColor=#6c8ebf;shadow=1;" parent="1" vertex="1">
          <mxGeometry x="1690" y="561" width="130" height="60" as="geometry" />
        </mxCell>
        <mxCell id="fXu-zx2hqorw0dzWZYp2-96" value="" style="endArrow=classic;html=1;rounded=0;exitX=1;exitY=0.5;exitDx=0;exitDy=0;entryX=0;entryY=0.5;entryDx=0;entryDy=0;" parent="1" source="fXu-zx2hqorw0dzWZYp2-91" target="fXu-zx2hqorw0dzWZYp2-95" edge="1">
          <mxGeometry width="50" height="50" relative="1" as="geometry">
            <mxPoint x="1280" y="521" as="sourcePoint" />
            <mxPoint x="1330" y="471" as="targetPoint" />
          </mxGeometry>
        </mxCell>
        <mxCell id="fXu-zx2hqorw0dzWZYp2-99" value="task move to&lt;b&gt; &quot;Ready for testing&quot;&lt;/b&gt; in ASANA&amp;nbsp;&lt;b&gt;(Q&amp;amp;A)&lt;/b&gt;" style="rounded=0;whiteSpace=wrap;html=1;fillColor=#eeeeee;strokeColor=#36393d;shadow=1;" parent="1" vertex="1">
          <mxGeometry x="1680" y="690" width="150" height="60" as="geometry" />
        </mxCell>
        <mxCell id="fXu-zx2hqorw0dzWZYp2-103" value="" style="endArrow=classic;html=1;rounded=0;" parent="1" edge="1">
          <mxGeometry width="50" height="50" relative="1" as="geometry">
            <mxPoint x="1750" y="620" as="sourcePoint" />
            <mxPoint x="1750" y="690" as="targetPoint" />
          </mxGeometry>
        </mxCell>
        <mxCell id="fXu-zx2hqorw0dzWZYp2-105" value="&lt;b&gt;Success&lt;/b&gt;" style="rhombus;whiteSpace=wrap;html=1;" parent="1" vertex="1">
          <mxGeometry x="1715" y="971" width="80" height="80" as="geometry" />
        </mxCell>
        <mxCell id="fXu-zx2hqorw0dzWZYp2-106" value="" style="endArrow=classic;html=1;rounded=0;exitX=0.5;exitY=1;exitDx=0;exitDy=0;" parent="1" source="fXu-zx2hqorw0dzWZYp2-99" edge="1">
          <mxGeometry width="50" height="50" relative="1" as="geometry">
            <mxPoint x="1390" y="711" as="sourcePoint" />
            <mxPoint x="1755" y="830" as="targetPoint" />
          </mxGeometry>
        </mxCell>
        <mxCell id="fXu-zx2hqorw0dzWZYp2-108" value="&lt;b&gt;If&lt;/b&gt;" style="text;html=1;align=center;verticalAlign=middle;resizable=0;points=[];autosize=1;strokeColor=none;fillColor=none;" parent="1" vertex="1">
          <mxGeometry x="1760" y="931" width="20" height="20" as="geometry" />
        </mxCell>
        <mxCell id="fXu-zx2hqorw0dzWZYp2-109" value="" style="endArrow=classic;html=1;rounded=0;exitX=1;exitY=0.5;exitDx=0;exitDy=0;" parent="1" source="fXu-zx2hqorw0dzWZYp2-105" target="fXu-zx2hqorw0dzWZYp2-110" edge="1">
          <mxGeometry width="50" height="50" relative="1" as="geometry">
            <mxPoint x="1390" y="711" as="sourcePoint" />
            <mxPoint x="1890" y="1011" as="targetPoint" />
          </mxGeometry>
        </mxCell>
        <mxCell id="fXu-zx2hqorw0dzWZYp2-110" value="&lt;b&gt;Closed&lt;/b&gt;" style="rounded=0;whiteSpace=wrap;html=1;fillColor=#d5e8d4;strokeColor=#82b366;shadow=1;" parent="1" vertex="1">
          <mxGeometry x="1890" y="981" width="120" height="60" as="geometry" />
        </mxCell>
        <mxCell id="fXu-zx2hqorw0dzWZYp2-111" value="&lt;b&gt;yes&lt;/b&gt;" style="text;html=1;align=center;verticalAlign=middle;resizable=0;points=[];autosize=1;strokeColor=none;fillColor=none;" parent="1" vertex="1">
          <mxGeometry x="1810" y="981" width="40" height="20" as="geometry" />
        </mxCell>
        <mxCell id="fXu-zx2hqorw0dzWZYp2-112" value="" style="endArrow=classic;html=1;rounded=0;entryX=0.5;entryY=1;entryDx=0;entryDy=0;exitX=0;exitY=0.5;exitDx=0;exitDy=0;" parent="1" source="fXu-zx2hqorw0dzWZYp2-105" target="fXu-zx2hqorw0dzWZYp2-85" edge="1">
          <mxGeometry width="50" height="50" relative="1" as="geometry">
            <mxPoint x="1410" y="711" as="sourcePoint" />
            <mxPoint x="1460" y="661" as="targetPoint" />
            <Array as="points">
              <mxPoint x="1070" y="1011" />
            </Array>
          </mxGeometry>
        </mxCell>
        <mxCell id="fXu-zx2hqorw0dzWZYp2-113" value="&lt;b&gt;no&lt;/b&gt;" style="text;html=1;align=center;verticalAlign=middle;resizable=0;points=[];autosize=1;strokeColor=none;fillColor=none;" parent="1" vertex="1">
          <mxGeometry x="1650" y="991" width="30" height="20" as="geometry" />
        </mxCell>
        <mxCell id="dabtLC075DSBV3i54uBR-1" value="&lt;i&gt;Pipedream sync&lt;/i&gt;" style="text;html=1;align=center;verticalAlign=middle;resizable=0;points=[];autosize=1;strokeColor=none;fillColor=none;" parent="1" vertex="1">
          <mxGeometry x="1649" y="645" width="110" height="30" as="geometry" />
        </mxCell>
        <mxCell id="dabtLC075DSBV3i54uBR-2" value="Issues move on own flow in Gitlab and divided into technical tasks with dependencies in Asana &amp;amp; linked issue in Gitlab" style="rounded=1;whiteSpace=wrap;html=1;fillColor=#fff2cc;strokeColor=#d6b656;shadow=1;" parent="1" vertex="1">
          <mxGeometry x="1340" y="690" width="160" height="71" as="geometry" />
        </mxCell>
        <mxCell id="dabtLC075DSBV3i54uBR-3" value="" style="endArrow=classic;html=1;rounded=0;entryX=0;entryY=0.5;entryDx=0;entryDy=0;" parent="1" source="fXu-zx2hqorw0dzWZYp2-87" target="dabtLC075DSBV3i54uBR-2" edge="1">
          <mxGeometry width="50" height="50" relative="1" as="geometry">
            <mxPoint x="1250" y="811" as="sourcePoint" />
            <mxPoint x="1330" y="720" as="targetPoint" />
            <Array as="points">
              <mxPoint x="1300" y="726" />
            </Array>
          </mxGeometry>
        </mxCell>
        <mxCell id="dabtLC075DSBV3i54uBR-4" value="" style="endArrow=classic;html=1;rounded=0;exitX=1.002;exitY=0.549;exitDx=0;exitDy=0;exitPerimeter=0;" parent="1" source="fXu-zx2hqorw0dzWZYp2-77" target="fXu-zx2hqorw0dzWZYp2-85" edge="1">
          <mxGeometry width="50" height="50" relative="1" as="geometry">
            <mxPoint x="1090" y="650" as="sourcePoint" />
            <mxPoint x="1140" y="600" as="targetPoint" />
          </mxGeometry>
        </mxCell>
        <mxCell id="dabtLC075DSBV3i54uBR-5" value="" style="endArrow=classic;html=1;rounded=0;" parent="1" target="fXu-zx2hqorw0dzWZYp2-82" edge="1">
          <mxGeometry width="50" height="50" relative="1" as="geometry">
            <mxPoint x="1070" y="560" as="sourcePoint" />
            <mxPoint x="1400" y="430" as="targetPoint" />
          </mxGeometry>
        </mxCell>
        <mxCell id="dabtLC075DSBV3i54uBR-6" value="&lt;b&gt;Q&amp;amp;A moves tasks to &quot;In Testing&quot; (ASANA)&lt;/b&gt;" style="rounded=0;whiteSpace=wrap;html=1;fillColor=#ffe6cc;strokeColor=#d79b00;shadow=1;" parent="1" vertex="1">
          <mxGeometry x="1680" y="830" width="160" height="60" as="geometry" />
        </mxCell>
        <mxCell id="dabtLC075DSBV3i54uBR-7" value="" style="endArrow=classic;html=1;rounded=0;exitX=0.467;exitY=1.011;exitDx=0;exitDy=0;exitPerimeter=0;" parent="1" source="dabtLC075DSBV3i54uBR-6" target="fXu-zx2hqorw0dzWZYp2-105" edge="1">
          <mxGeometry width="50" height="50" relative="1" as="geometry">
            <mxPoint x="2010" y="860" as="sourcePoint" />
            <mxPoint x="2060" y="810" as="targetPoint" />
          </mxGeometry>
        </mxCell>
        <mxCell id="aGBv_b71yjKF1JckrQnh-12" value="&lt;b style=&quot;border-color: var(--border-color);&quot;&gt;using Tag system &lt;br&gt;between Asana-Gitlab &lt;br&gt;for sync&lt;/b&gt;" style="shape=step;perimeter=stepPerimeter;whiteSpace=wrap;html=1;fixedSize=1;fillColor=#f9f7ed;strokeColor=#36393d;" vertex="1" parent="1">
          <mxGeometry x="1100" y="640" width="170" height="80" as="geometry" />
        </mxCell>
      </root>
    </mxGraphModel>
  </diagram>
</mxfile>
